<svg width="32" height="32" viewBox="0 0 32 32" fill="none" xmlns="http://www.w3.org/2000/svg">
<rect width="32" height="32" rx="9.375" fill="#000D43"/>
<rect width="32" height="32" rx="9.375" fill="url(#paint0_radial_71188_160122)"/>
<rect width="32" height="32" rx="9.375" fill="url(#paint1_radial_71188_160122)"/>
<path d="M6.625 6.625H25.375V25.375H6.625V6.625Z" fill="url(#paint2_radial_71188_160122)"/>
<path fill-rule="evenodd" clip-rule="evenodd" d="M16.9056 22.4406L9.31836 26.5486L13.4315 13.981L22.5564 8.92474C23.566 8.83457 24.67 8.93692 25.5734 9.42326C26.7072 10.0335 27.3307 11.143 27.2531 12.4252C27.1859 13.5371 26.7508 14.3577 26.0507 15.1013C26.4197 15.8728 26.3852 16.8768 26.1321 17.6507C25.7259 18.8897 25.0529 20.0082 24.0137 20.8187C22.9746 21.6291 21.7188 22.011 20.4214 22.1277L16.9052 22.4431L16.9056 22.4406Z" fill="#B5DFE6"/>
<path fill-rule="evenodd" clip-rule="evenodd" d="M25.4565 17.4286C25.0951 18.5315 24.5026 19.5351 23.5766 20.2558C22.6506 20.9764 21.516 21.313 20.3571 21.4171L16.6958 21.7458L10.5491 25.0732L14.2661 13.7175L10.2915 10.7333L22.6206 9.63144C23.4864 9.55416 24.4633 9.63144 25.2372 10.0492C26.174 10.5533 26.6029 11.4208 26.5448 12.3817C26.4727 13.572 25.8917 14.3211 25.1279 15.0087C25.7197 15.5744 25.695 16.7055 25.4576 17.4289L25.4565 17.4286Z" fill="#000239"/>
<path d="M22.7419 11.0003C24.032 10.8851 25.5879 11.2147 25.0792 12.7667C24.7422 13.7948 23.9802 14.6651 22.9361 15.0888C24.0408 15.1664 24.4216 16.1774 24.1515 17.0011C23.5283 18.9012 22.3064 19.8641 20.2346 20.0497L16.2913 20.4037L12.9263 22.2251L15.8756 13.2099L13.9755 11.7826L22.7408 10.9993L22.7419 11.0003Z" fill="#01ACE0"/>
<path fill-rule="evenodd" clip-rule="evenodd" d="M13.2814 19.0422L5.69381 23.1501L9.80769 10.5825L4.75977 6.79242L18.9322 5.52592C19.9418 5.43575 21.0454 5.5381 21.9488 6.02444C23.0827 6.63507 23.7065 7.74492 23.6289 9.02674C23.5617 10.1387 23.1265 10.9592 22.4261 11.7025C22.7951 12.4743 22.7607 13.4801 22.5076 14.2519C22.1013 15.4916 21.4284 16.6101 20.3892 17.4199C19.35 18.2296 18.0946 18.6119 16.7971 18.7281L13.281 19.0439L13.2814 19.0422Z" fill="#B5DFE6"/>
<path fill-rule="evenodd" clip-rule="evenodd" d="M21.8324 14.0291C21.4707 15.1326 20.8782 16.136 19.9525 16.8569C19.0268 17.5779 17.8922 17.9139 16.7333 18.018L13.0717 18.3459L6.92363 21.6734L10.641 10.318L6.66602 7.33377L18.9955 6.23159C19.8609 6.1543 20.8378 6.23159 21.612 6.64935C22.5485 7.15379 22.9774 8.02169 22.9193 8.98183C22.8472 10.1718 22.2665 10.9209 21.5024 11.6081C22.0942 12.1742 22.0695 13.3049 21.8324 14.0284V14.0291Z" fill="#000239"/>
<path d="M19.1174 7.60114C20.4072 7.48591 21.963 7.81524 21.4544 9.36757C21.2629 9.95243 20.97 10.4398 20.5757 10.8297C20.1814 11.2196 19.76 11.5059 19.3116 11.6886C20.4159 11.7662 20.7968 12.7768 20.5266 13.6009C20.2133 14.5564 19.7405 15.2803 19.1083 15.7725C18.4761 16.2648 17.6434 16.5571 16.6101 16.6495L12.6665 17.0035L9.30176 18.8246L12.2522 9.81039L10.3521 8.38305L19.1174 7.59975V7.60114ZM17.6552 9.71988L14.9662 9.96079L14.4903 11.4122L17.1793 11.1705C17.812 11.1137 18.2242 10.7928 18.4159 10.208C18.5214 9.89186 18.3967 9.65338 17.6552 9.71988ZM16.9823 13.1758L13.8188 13.4595L13.3276 14.9565L16.491 14.6728C17.1236 14.616 17.5111 14.2863 17.7276 13.7095C17.8526 13.3777 17.7099 13.1103 16.9823 13.1758Z" fill="white"/>
<path fill-rule="evenodd" clip-rule="evenodd" d="M11.8252 12.4792L17.5378 11.9657L17.5214 11.9723L19.2809 12.0962C20.0436 12.1502 20.3305 12.8388 20.1209 13.479C19.8772 14.2265 19.4845 14.9548 18.8401 15.4564C18.1957 15.9581 17.3811 16.1711 16.571 16.2439L12.5368 16.6052L10.0303 17.963L11.8252 12.4792ZM16.9428 12.7692C17.2885 12.7382 17.6989 12.7546 17.9667 12.9965C18.2194 13.2245 18.241 13.549 18.1285 13.8487C17.8584 14.5683 17.3358 15.008 16.531 15.0804L12.7294 15.4212L13.4977 13.0783L16.9428 12.7692Z" fill="#B5DFE6"/>
<defs>
<radialGradient id="paint0_radial_71188_160122" cx="0" cy="0" r="1" gradientUnits="userSpaceOnUse" gradientTransform="translate(16 16) rotate(90) scale(16)">
<stop stop-color="#0075FF"/>
<stop offset="1" stop-color="#0075FF" stop-opacity="0"/>
</radialGradient>
<radialGradient id="paint1_radial_71188_160122" cx="0" cy="0" r="1" gradientUnits="userSpaceOnUse" gradientTransform="translate(16 16) rotate(180) scale(16 16)">
<stop stop-color="#70B3FF"/>
<stop offset="1" stop-color="#0075FF" stop-opacity="0"/>
</radialGradient>
<radialGradient id="paint2_radial_71188_160122" cx="0" cy="0" r="1" gradientUnits="userSpaceOnUse" gradientTransform="translate(16 16) rotate(90) scale(9.375)">
<stop offset="0.5" stop-color="#70B3FF"/>
<stop offset="1" stop-color="#70B3FF" stop-opacity="0"/>
</radialGradient>
</defs>
</svg>
