<svg fill="none" xmlns="http://www.w3.org/2000/svg" viewBox="0 0 66 36"><path d="M3 11c0-3.7712 0-5.6569 1.1716-6.8284C5.343 3 7.2288 3 11 3h44c3.7712 0 5.6569 0 6.8284 1.1716C63 5.343 63 7.2288 63 11v14c0 3.7712 0 5.6569-1.1716 6.8284C60.6569 33 58.7712 33 55 33H11c-3.7712 0-5.6569 0-6.8284-1.1716C3 30.6569 3 28.7712 3 25V11Z" fill="#8D81FC"/><path d="M20.1406 9.2466h3.8134v11.7131c0 1.3151-.3141 2.4659-.9424 3.4522-.6223.9864-1.4942 1.7555-2.6156 2.3074-1.1214.546-2.4277.8191-3.919.8191-1.4972 0-2.8065-.2731-3.9279-.8191-1.1214-.5519-1.9932-1.321-2.6156-2.3074C9.3112 23.4256 9 22.2748 9 20.9597V9.2466h3.8134v11.3872c0 .6869.1497 1.2975.4491 1.8318.3053.5343.7339.9541 1.2858 1.2594.5519.3053 1.1948.458 1.9287.458.7398 0 1.3827-.1527 1.9287-.458.5519-.3053.9775-.7251 1.277-1.2594.3053-.5343.4579-1.1449.4579-1.8318V9.2466ZM27.0914 27.283V9.2466h11.9421v3.144h-8.1287v4.2978h7.336v3.144h-7.336v7.4506h-3.8134ZM57.5124 15.5611H53.655c-.0705-.4991-.2143-.9424-.4316-1.3299-.2172-.3933-.4961-.728-.8366-1.0039-.3405-.276-.7339-.4873-1.1801-.6341-.4404-.1468-.9189-.2202-1.4355-.2202-.9336 0-1.7467.2319-2.4395.6957-.6928.458-1.23 1.1273-1.6117 2.008-.3816.8748-.5724 1.9375-.5724 3.1881 0 1.2858.1908 2.3661.5724 3.2409.3875.8748.9277 1.5353 1.6205 1.9815.6928.4462 1.4942.6693 2.4042.6693.5108 0 .9835-.0675 1.4179-.2025.4404-.1351.8308-.3317 1.1713-.5901.3406-.2642.6224-.5842.8455-.9599.229-.3758.3875-.8044.4756-1.2858l3.8574.0176c-.0999.8278-.3494 1.6263-.7486 2.3954-.3934.7633-.9247 1.4473-1.5941 2.052-.6634.5989-1.456 1.0745-2.3778 1.4267-.9159.3464-1.9522.5196-3.1088.5196-1.6087 0-3.0472-.364-4.3153-1.092-1.2624-.728-2.2605-1.7819-2.9944-3.1616-.728-1.3798-1.092-3.0501-1.092-5.0111 0-1.9669.3699-3.6402 1.1096-5.0199.7398-1.3797 1.7438-2.4307 3.012-3.1529C46.6712 9.364 48.0979 9 49.6831 9c1.0451 0 2.0138.1468 2.9062.4403.8983.2936 1.6939.7222 2.3867 1.2858.6928.5578 1.2564 1.2418 1.6909 2.052.4403.8103.7222 1.7379.8455 2.783Z" fill="#FAF9FF"/></svg>
