<svg xmlns:xlink="http://www.w3.org/1999/xlink" xmlns="http://www.w3.org/2000/svg" width="108" height="36" viewBox="0 0 108 36" fill="none"><rect x="3" y="3" width="60" height="30" rx="4" fill="#8D81FC"/><path d="M20.14 9.247h3.814V20.96c0 1.315-.314 2.466-.942 3.452-.623.986-1.495 1.755-2.616 2.307-1.121.546-2.428.82-3.919.82-1.497 0-2.806-.274-3.928-.82-1.121-.552-1.993-1.32-2.615-2.307C9.31 23.426 9 22.275 9 20.96V9.247h3.813v11.387c0 .687.15 1.297.45 1.832a3.27 3.27 0 0 0 1.285 1.259c.552.305 1.195.458 1.929.458.74 0 1.383-.153 1.929-.458a3.215 3.215 0 0 0 1.277-1.26c.305-.534.458-1.144.458-1.831V9.247Zm6.951 18.036V9.247h11.942v3.144h-8.128v4.297h7.336v3.144h-7.336v7.451H27.09Zm30.421-11.722h-3.857a3.753 3.753 0 0 0-.432-1.33 3.383 3.383 0 0 0-.836-1.004 3.68 3.68 0 0 0-1.18-.634 4.514 4.514 0 0 0-1.436-.22c-.933 0-1.746.232-2.44.696-.692.458-1.23 1.127-1.611 2.008-.382.874-.572 1.937-.572 3.188 0 1.286.19 2.366.572 3.24.388.876.928 1.536 1.62 1.982.693.446 1.495.67 2.405.67.51 0 .983-.068 1.418-.203.44-.135.83-.332 1.17-.59a3.4 3.4 0 0 0 .846-.96 3.74 3.74 0 0 0 .476-1.286l3.857.018a7.197 7.197 0 0 1-2.343 4.447c-.663.6-1.455 1.075-2.377 1.427-.916.346-1.952.52-3.109.52-1.609 0-3.047-.364-4.315-1.093-1.263-.728-2.26-1.781-2.995-3.161-.728-1.38-1.092-3.05-1.092-5.011 0-1.967.37-3.64 1.11-5.02.74-1.38 1.744-2.43 3.012-3.153C46.671 9.364 48.098 9 49.683 9c1.045 0 2.014.147 2.906.44a7.37 7.37 0 0 1 2.387 1.286 6.616 6.616 0 0 1 1.69 2.052c.441.81.723 1.738.846 2.783Z" fill="#FAF9FF"/><path d="M71.814 27.962a4.491 4.491 0 0 1-2.45-.694c-.726-.467-1.303-1.152-1.73-2.055C67.21 24.304 67 23.19 67 21.87c0-1.355.219-2.482.657-3.38.438-.904 1.02-1.579 1.746-2.025a4.486 4.486 0 0 1 2.403-.678c.664 0 1.218.113 1.66.339.45.22.81.498 1.083.832.278.328.489.651.633.97h.1V12h3.284v15.769h-3.245v-1.894h-.139a4.224 4.224 0 0 1-.657.978 3.26 3.26 0 0 1-1.089.793c-.443.21-.984.316-1.623.316Zm1.043-2.61c.53 0 .978-.144 1.344-.432.37-.293.654-.7.85-1.224.2-.524.301-1.137.301-1.84 0-.704-.098-1.315-.293-1.833-.196-.518-.48-.919-.85-1.201-.371-.282-.822-.424-1.352-.424-.541 0-.997.147-1.368.44-.37.292-.652.697-.842 1.216-.19.518-.286 1.119-.286 1.802 0 .688.095 1.296.286 1.824.196.524.476.935.842 1.232.37.293.827.44 1.368.44ZM86.68 28c-1.22 0-2.27-.246-3.152-.74a5.07 5.07 0 0 1-2.024-2.109c-.474-.914-.71-1.994-.71-3.241 0-1.217.236-2.285.71-3.204a5.244 5.244 0 0 1 2.001-2.148c.866-.513 1.88-.77 3.044-.77.783 0 1.512.126 2.187.378.68.246 1.272.618 1.777 1.116.51.498.907 1.124 1.19 1.879.283.75.425 1.627.425 2.633v.9l-8.082.009V20.67l4.984-.008c0-.472-.103-.89-.31-1.255a2.21 2.21 0 0 0-.857-.855c-.36-.21-.78-.315-1.26-.315-.499 0-.942.115-1.328.346-.382.226-.68.532-.897.917-.216.38-.327.803-.332 1.27v1.933c0 .585.108 1.09.325 1.516.221.426.533.755.935.986.401.231.878.347 1.429.347.366 0 .7-.052 1.004-.154a2.09 2.09 0 0 0 .78-.462c.217-.206.382-.457.495-.755l3.044.2a4.137 4.137 0 0 1-.95 1.91c-.474.539-1.087.96-1.839 1.262-.747.298-1.61.447-2.588.447ZM105 15.942l-4.149 11.827h-3.709l-4.149-11.827h3.477l2.465 8.462h.123l2.457-8.462H105Z" fill="#B3ACF1"/></svg>