<svg xmlns="http://www.w3.org/2000/svg" xmlns:xlink="http://www.w3.org/1999/xlink">
<symbol xmlns="http://www.w3.org/2000/svg" id="bonus" viewBox="0 0 24 24"><path d="M21.565 4.273h-1.601c.211-.335.35-.71.39-1.108.127-1.27-.54-2.41-1.678-2.914a2.808 2.808 0 0 0-3.066.494L13.588 2.58a2.145 2.145 0 0 0-3.178.003L8.385.744A2.81 2.81 0 0 0 5.319.251C4.182.756 3.514 1.895 3.64 3.166c.04.397.18.773.39 1.107H2.436C1.642 4.273 1 4.917 1 5.711v2.156c0 .396.321.718.717.718h20.566A.718.718 0 0 0 23 7.867V5.71c0-.794-.642-1.438-1.435-1.438Zm-11.717-.24v.24H6.473a1.418 1.418 0 0 1-1.37-1.762 1.41 1.41 0 0 1 .774-.936 1.379 1.379 0 0 1 1.545.235l2.426 2.203v.02Zm9.083-1.059c-.054.747-.727 1.3-1.475 1.3h-3.304v-.265l2.388-2.17c.368-.333.882-.489 1.358-.347.682.204 1.082.785 1.033 1.482ZM2.435 10.023v10.54c0 .794.642 1.437 1.435 1.437h6.695V10.023h-8.13Zm11 0V22h6.695c.793 0 1.435-.643 1.435-1.437v-10.54h-8.13Z"/></symbol><symbol xmlns="http://www.w3.org/2000/svg" id="cashcrab" viewBox="0 0 32 32"><path d="M28.866 8.225c-.56.773-1.097 1.523-1.644 2.266-.25.34-.498.69-.787.998-.45.48-.885.537-1.483.264-.238-.109-.486-.198-.72-.315-.29-.144-.481-.093-.634.207-.28.55-.597 1.084-.883 1.632-.377.725-1.046.983-1.815.688-.408-.156-.816-.314-1.232-.444-.111-.035-.291-.015-.377.055-1.13.916-2.226 1.879-2.944 3.157-.313.556-.562 1.191-.65 1.816-.15 1.054.222 1.341 1.12 1.6.835.24 1.575-.018 2.215-.583.122-.107.241-.223.379-.308.508-.314.954-.164 1.19.44.192-.187.376-.348.54-.527.704-.766 1.452-1.476 2.422-1.909.12-.053.24-.107.366-.143.527-.149.882.076.973.61.065.377.24.495.542.267.284-.214.51-.522.707-.824.23-.352.369-.764.602-1.113.53-.796 1.314-.808 1.914-.061.377.467.55 1.008.587 1.592a5.298 5.298 0 0 1-.321 2.232c-.689 1.835-1.964 3.209-3.467 4.403-2.007 1.595-4.325 2.603-6.733 3.43-1.983.681-4.011 1.165-6.109 1.307-2.467.168-4.832-.208-6.98-1.489-1.379-.823-2.615-1.818-3.421-3.246-.754-1.334-1.094-2.784-1.188-4.291-.14-2.247.123-4.436 1.068-6.513.815-1.79 1.939-3.368 3.327-4.758 2.14-2.144 4.61-3.822 7.43-4.966C15.528 2.616 18.308 1.986 21.197 2c2.584.013 5.085.533 7.445 1.608.699.318 1.365.721 1.81 1.362.229.33.433.723.49 1.11.084.581.065 1.185.018 1.774-.035.444-.318.755-.789.84-.468.086-.895.024-1.209-.38-.019-.025-.046-.043-.096-.088v-.001Z"/></symbol><symbol xmlns="http://www.w3.org/2000/svg" id="games-live-casino" viewBox="0 0 24 24"><path d="M17.513 0H6.487C4.804 0 3.5 1.45 3.5 3.188v17.624C3.5 22.55 4.858 24 6.487 24h11.026c1.63 0 2.987-1.45 2.987-3.188V3.188C20.5 1.45 19.142 0 17.513 0ZM6.324 5.217a1.039 1.039 0 0 1-.814-1.043c0-1.102 1.249-2.03 1.629-2.261a.157.157 0 0 1 .217 0c.38.232 1.63 1.16 1.63 2.26 0 .523-.326.928-.76 1.044-.381.058-.707-.058-.924-.347-.272.29-.598.405-.978.347Zm5.92 11.073c-.162.116-.38.116-.488 0-.978-.638-4.237-3.073-4.237-5.913 0-1.334.815-2.435 2.01-2.725a2.535 2.535 0 0 1 2.444.928c.543-.754 1.466-1.16 2.498-.928 1.195.232 2.064 1.391 2.01 2.725-.055 2.84-3.313 5.275-4.237 5.913Zm4.563 5.797a.158.158 0 0 1-.217 0c-.38-.232-1.63-1.16-1.63-2.26 0-.523.326-.928.76-1.044.38-.058.707.058.924.347.217-.29.597-.463.977-.347.49.116.76.521.76 1.043.055 1.101-1.194 2.03-1.574 2.261Z"/></symbol><symbol xmlns="http://www.w3.org/2000/svg" id="games-casino" viewBox="0 0 24 24"><path d="M21.723 2.001a2.255 2.255 0 0 0-2.156 2.153 2.246 2.246 0 0 0 1.51 2.153v3.54h-2.541v-7.88A1.912 1.912 0 0 0 16.619.054H3.917A1.919 1.919 0 0 0 2 1.967v20.12a1.887 1.887 0 0 0 1.18 1.774 1.9 1.9 0 0 0 .737.139H16.62a1.919 1.919 0 0 0 1.917-1.914V13.58h2.787c.658 0 1.191-.529 1.191-1.181v-6.09a2.228 2.228 0 0 0 1.312-2.965A2.201 2.201 0 0 0 21.723 2ZM8.734 8.604h3.044v5.932H8.734V8.604Zm-4.553 0h3.044v5.932H4.18V8.604Zm12.15 12.98H4.181v-5.23h12.15v5.23Zm0-7.048h-3.043V8.604h3.043v5.932Z"/></symbol>
<symbol xmlns="http://www.w3.org/2000/svg" id="home" viewBox="0 0 24 24"><path fill-rule="evenodd" clip-rule="evenodd" d="M11.746 1.07.092 11.615c-.184.28-.092.653.278.653h2.312v10.079c0 .373.37.653.648.653h5.457c.277 0 .555-.28.555-.56v-6.999h5.364v7c0 .279.185.559.555.559h5.364c.37 0 .648-.28.648-.653V12.268h2.405c.277 0 .462-.373.185-.653L12.209 1.07c-.093-.093-.278-.093-.463 0Z"/></symbol>
<symbol xmlns="http://www.w3.org/2000/svg" id="jackpots" viewBox="0 0 24 24"><path d="M.618 7.667c-.56 1.868 1.197 3.02 1.197 3.02 2.234 1.465 4.81 1.453 7.366 1.267l.016.095c-2.328.752-4.873 1.603-6.287 3.756-.437.665-.737 1.508-.591 2.31a2.46 2.46 0 0 0 1.286 1.729 2.458 2.458 0 0 0 2.153.019l-.011.058s-.233 1.92 1.61 2.554c1.844.635 3.067-1.074 3.067-1.074 1.236-1.727 2.018-3.842 2.25-5.924 1.082 2.69 1.645 3.137 1.177 7.988a.441.441 0 1 0 .863.187c.593-4.864-.107-5.82-1.238-8.573 1.148 1.764 2.601 3.325 4.607 4.194 0 0 1.928.835 3.182-.659 1.253-1.493.065-3.019.065-3.019l-.04-.043a2.461 2.461 0 0 0 1.837-1.126 2.46 2.46 0 0 0 .212-2.144c-.289-.763-.98-1.331-1.697-1.677-2.32-1.117-4.94-.535-7.323.019l-.036-.09c2.287-1.157 4.502-2.472 5.662-4.879 0 0 .913-1.892-.529-3.205-1.441-1.313-3.014-.188-3.014-.188l-.045.038a2.461 2.461 0 0 0-1.05-1.88 2.46 2.46 0 0 0-2.133-.3c-.774.258-1.37.925-1.744 1.628-1.21 2.273-.736 4.914-.28 7.318l-.039.016c-.846-2.296-1.799-4.805-4.007-6.13-.682-.41-1.537-.675-2.333-.497A2.461 2.461 0 0 0 3.096 3.81a2.46 2.46 0 0 0 .068 2.153l-.058-.01c0 .001-1.928-.154-2.488 1.714Z"/></symbol>
<symbol xmlns="http://www.w3.org/2000/svg" id="sports-football" viewBox="0 0 24 24"><path d="M12 1C5.937 1 1 5.937 1 12s4.937 11 11 11 11-4.937 11-11S18.063 1 12 1ZM2.073 12a9.4 9.4 0 0 1 .242-2.146l2.71-1.556 3.219 1.85v3.703l-3.22 1.851-2.71-1.556A9.399 9.399 0 0 1 2.075 12Zm6.44-2.334-3.22-1.851v-3.14A9.777 9.777 0 0 1 9.022 2.53l2.71 1.583v3.73l-3.22 1.824Zm6.975 4.668 3.22 1.851v3.14a9.776 9.776 0 0 1-3.73 2.146l-2.71-1.583v-3.73l3.22-1.824Zm3.22-9.658v3.139l-3.22 1.85-3.22-1.85v-3.73l2.71-1.556c1.395.456 2.683 1.18 3.73 2.147ZM5.292 19.324v-3.139l3.22-1.85 3.219 1.85v3.73l-2.71 1.556c-1.395-.456-2.683-1.18-3.73-2.147Zm13.683-3.622-3.22-1.85v-3.703l3.22-1.851 2.71 1.556a9.66 9.66 0 0 1 0 4.292l-2.71 1.556Z"/></symbol><symbol xmlns="http://www.w3.org/2000/svg" id="sports-live-sports" viewBox="0 0 24 24"><path fill-rule="evenodd" clip-rule="evenodd" d="M.857 3h22.286c.514 0 .857.4.857 1v16c0 .6-.343 1-.857 1H.857C.343 21 0 20.6 0 20V4c0-.6.343-1 .857-1Zm1.076 5.473v6.92h4.43v-1.206H3.396V8.473H1.933Zm6.862 6.92v-6.92H7.332v6.92h1.463Zm2.454-6.92 1.672 5.258h.065l1.676-5.258h1.622l-2.386 6.92h-1.886l-2.388-6.92h1.625Zm5.867 0v6.92h4.677v-1.206H18.58v-1.652h2.96v-1.207h-2.96V9.68h3.2V8.473h-4.664Z"/></symbol><symbol xmlns="http://www.w3.org/2000/svg" id="tournament" viewBox="0 0 24 24"><path d="M20.956 3.286h-1.264c.018-.39.038-.78.038-1.18 0-.39-.143-.779-.4-1.064-.256-.285-.599-.457-.97-.457H5.64c-.371 0-.723.172-.98.457a1.603 1.603 0 0 0-.39 1.065c0 .399.02.789.039 1.179H3.044A2.047 2.047 0 0 0 1 5.33v1.397a6.622 6.622 0 0 0 6.037 6.598c.954 2.534 2.177 3.683 3.537 4.14l-.704 4.047H8.065a.95.95 0 1 0 0 1.902h7.87a.95.95 0 1 0 0-1.902H14.13l-.704-4.046c1.36-.389 2.655-1.85 3.68-4.378C20.5 12.165 23 9.066 23 5.387V5.33a2.047 2.047 0 0 0-2.044-2.044Zm-7.758 2.196 1.179.17a.743.743 0 0 1 .599.505.754.754 0 0 1-.19.76l-.856.837.2 1.17a.765.765 0 0 1-.286.731c-.251.162-.532.198-.789.048L12 9.152l-1.055.551a.742.742 0 0 1-.78-.048.752.752 0 0 1-.295-.732l.2-1.179-.856-.827a.754.754 0 0 1-.19-.76.756.756 0 0 1 .6-.504l1.178-.171.533-1.075A.744.744 0 0 1 12 4c.285 0 .542.152.665.408l.533 1.075ZM2.9 6.727V5.33c0-.076.067-.143.143-.143H4.46c.247 2.244.76 4.26 1.454 5.952A4.74 4.74 0 0 1 2.9 6.727Zm18.2-1.34c0 2.12-1.103 3.993-2.758 5.086.57-1.55.98-3.337 1.198-5.286h1.417c.076 0 .143.067.143.143v.057Z"/></symbol><symbol xmlns="http://www.w3.org/2000/svg" id="vip" viewBox="0 0 24 24"><path d="M7.425 2 6.383 6.803H0c.013-.085.029-.17.048-.253l2.869-3.458A3.01 3.01 0 0 1 5.234 2h2.19Zm1.987 0h5.415l1.043 4.803h-7.5L9.412 2ZM8.39 8.579l3.525 13.416c.137.008.274.007.41-.004L15.85 8.579H8.39Zm15.586 0c-.006.09-.017.18-.031.269l-9.443 12.848a3.002 3.002 0 0 1-.356.145L17.631 8.58h6.345Zm-.026-1.776.05-.108-2.99-3.603A3.01 3.01 0 0 0 18.695 2h-2.092l1.041 4.803h6.307ZM0 8.579h6.42l3.492 13.286a3.011 3.011 0 0 1-.475-.188L.038 8.887A3.118 3.118 0 0 1 0 8.58Z"/></symbol></svg>